<svg width="345" height="330" viewBox="0 0 345 330" fill="none" xmlns="http://www.w3.org/2000/svg">
<circle cx="7.5" cy="42.5" r="7.5" fill="#EE7E19"/>
<circle cx="62.5" cy="42.5" r="7.5" fill="#EE7E19"/>
<circle cx="117.5" cy="42.5" r="7.5" fill="#EE7E19"/>
<circle cx="172.5" cy="42.5" r="7.5" fill="#EE7E19"/>
<circle cx="227.5" cy="42.5" r="7.5" fill="#EE7E19"/>
<circle cx="282.5" cy="42.5" r="7.5" fill="#EE7E19"/>
<circle cx="337.5" cy="42.5" r="7.5" fill="#EE7E19"/>
<circle cx="7.5" cy="77.5" r="7.5" fill="#EE7E19"/>
<circle cx="62.5" cy="77.5" r="7.5" fill="#EE7E19"/>
<circle cx="117.5" cy="77.5" r="7.5" fill="#EE7E19"/>
<circle cx="172.5" cy="77.5" r="7.5" fill="#EE7E19"/>
<circle cx="227.5" cy="77.5" r="7.5" fill="#EE7E19"/>
<circle cx="282.5" cy="77.5" r="7.5" fill="#EE7E19"/>
<circle cx="337.5" cy="77.5" r="7.5" fill="#EE7E19"/>
<circle cx="7.5" cy="112.5" r="7.5" fill="#EE7E19"/>
<circle cx="62.5" cy="112.5" r="7.5" fill="#EE7E19"/>
<circle cx="117.5" cy="112.5" r="7.5" fill="#EE7E19"/>
<circle cx="172.5" cy="112.5" r="7.5" fill="#EE7E19"/>
<circle cx="227.5" cy="112.5" r="7.5" fill="#EE7E19"/>
<circle cx="282.5" cy="112.5" r="7.5" fill="#EE7E19"/>
<circle cx="337.5" cy="112.5" r="7.5" fill="#EE7E19"/>
<circle cx="7.5" cy="147.5" r="7.5" fill="#EE7E19"/>
<circle cx="62.5" cy="147.5" r="7.5" fill="#EE7E19"/>
<circle cx="117.5" cy="147.5" r="7.5" fill="#EE7E19"/>
<circle cx="172.5" cy="147.5" r="7.5" fill="#EE7E19"/>
<circle cx="227.5" cy="147.5" r="7.5" fill="#EE7E19"/>
<circle cx="282.5" cy="147.5" r="7.5" fill="#EE7E19"/>
<circle cx="337.5" cy="147.5" r="7.5" fill="#EE7E19"/>
<circle cx="7.5" cy="182.5" r="7.5" fill="#EE7E19"/>
<circle cx="62.5" cy="182.5" r="7.5" fill="#EE7E19"/>
<circle cx="117.5" cy="182.5" r="7.5" fill="#EE7E19"/>
<circle cx="172.5" cy="182.5" r="7.5" fill="#EE7E19"/>
<circle cx="227.5" cy="182.5" r="7.5" fill="#EE7E19"/>
<circle cx="282.5" cy="182.5" r="7.5" fill="#EE7E19"/>
<circle cx="337.5" cy="182.5" r="7.5" fill="#EE7E19"/>
<circle cx="7.5" cy="217.5" r="7.5" fill="#EE7E19"/>
<circle cx="62.5" cy="217.5" r="7.5" fill="#EE7E19"/>
<circle cx="117.5" cy="217.5" r="7.5" fill="#EE7E19"/>
<circle cx="172.5" cy="217.5" r="7.5" fill="#EE7E19"/>
<circle cx="227.5" cy="217.5" r="7.5" fill="#EE7E19"/>
<circle cx="282.5" cy="217.5" r="7.5" fill="#EE7E19"/>
<circle cx="337.5" cy="217.5" r="7.5" fill="#EE7E19"/>
<circle cx="7.5" cy="252.5" r="7.5" fill="#EE7E19"/>
<circle cx="62.5" cy="252.5" r="7.5" fill="#EE7E19"/>
<circle cx="117.5" cy="252.5" r="7.5" fill="#EE7E19"/>
<circle cx="172.5" cy="252.5" r="7.5" fill="#EE7E19"/>
<circle cx="227.5" cy="252.5" r="7.5" fill="#EE7E19"/>
<circle cx="282.5" cy="252.5" r="7.5" fill="#EE7E19"/>
<circle cx="337.5" cy="252.5" r="7.5" fill="#EE7E19"/>
<circle cx="7.5" cy="287.5" r="7.5" fill="#EE7E19"/>
<circle cx="62.5" cy="287.5" r="7.5" fill="#EE7E19"/>
<circle cx="117.5" cy="287.5" r="7.5" fill="#EE7E19"/>
<circle cx="172.5" cy="287.5" r="7.5" fill="#EE7E19"/>
<circle cx="227.5" cy="287.5" r="7.5" fill="#EE7E19"/>
<circle cx="282.5" cy="287.5" r="7.5" fill="#EE7E19"/>
<circle cx="337.5" cy="287.5" r="7.5" fill="#EE7E19"/>
<circle cx="7.5" cy="322.5" r="7.5" fill="#EE7E19"/>
<circle cx="62.5" cy="322.5" r="7.5" fill="#EE7E19"/>
<circle cx="117.5" cy="322.5" r="7.5" fill="#EE7E19"/>
<circle cx="172.5" cy="322.5" r="7.5" fill="#EE7E19"/>
<circle cx="227.5" cy="322.5" r="7.5" fill="#EE7E19"/>
<circle cx="282.5" cy="322.5" r="7.5" fill="#EE7E19"/>
<circle cx="337.5" cy="322.5" r="7.5" fill="#EE7E19"/>
<circle cx="7.5" cy="7.5" r="7.5" fill="#EE7E19"/>
<circle cx="62.5" cy="7.5" r="7.5" fill="#EE7E19"/>
<circle cx="117.5" cy="7.5" r="7.5" fill="#EE7E19"/>
<circle cx="172.5" cy="7.5" r="7.5" fill="#EE7E19"/>
<circle cx="227.5" cy="7.5" r="7.5" fill="#EE7E19"/>
<circle cx="282.5" cy="7.5" r="7.5" fill="#EE7E19"/>
<circle cx="337.5" cy="7.5" r="7.5" fill="#EE7E19"/>
</svg>
