<svg width="40" height="40" viewBox="0 0 40 40" fill="none" xmlns="http://www.w3.org/2000/svg">
<path d="M39.6567 33.0276L32.8983 26.2692L36.2129 22.9546C36.5001 22.6675 36.6181 22.2521 36.5247 21.8568C36.4314 21.4614 36.1401 21.1427 35.7548 21.0143L15.8675 14.3851C15.4465 14.2447 14.9821 14.3543 14.6683 14.6682C14.3544 14.9822 14.2448 15.4464 14.3852 15.8675L21.0143 35.7549C21.1428 36.1402 21.4616 36.4315 21.8568 36.5248C22.252 36.6183 22.6675 36.5002 22.9547 36.2129L26.2693 32.8984L33.0277 39.6567C33.2565 39.8855 33.5565 40 33.8563 40C34.1562 40 34.4561 39.8856 34.6849 39.6567L39.6568 34.6849C40.1144 34.2272 40.1144 33.4852 39.6567 33.0276ZM33.8562 37.1708L27.0978 30.4124C26.6402 29.9548 25.8981 29.9548 25.4405 30.4124L22.6381 33.2149L17.3498 17.3498L33.2148 22.6382L30.4124 25.4406C29.9551 25.8978 29.9548 26.6403 30.4124 27.0978L37.1708 33.8563L33.8562 37.1708Z" fill="#EE7E19"/>
<path d="M15.2344 9.37498C15.8815 9.37498 16.4062 8.8503 16.4062 8.20311V1.17187C16.4062 0.524687 15.8815 0 15.2344 0C14.5872 0 14.0625 0.524687 14.0625 1.17187V8.20311C14.0625 8.8503 14.5872 9.37498 15.2344 9.37498Z" fill="#EE7E19"/>
<path d="M6.11931 4.46204C5.66173 4.00438 4.9197 4.00438 4.46205 4.46204C4.00439 4.91969 4.00439 5.66164 4.46205 6.1193L9.43392 11.0912C9.89149 11.5488 10.6336 11.5488 11.0912 11.0912C11.5488 10.6335 11.5488 9.89156 11.0912 9.4339L6.11931 4.46204Z" fill="#EE7E19"/>
<path d="M9.43392 19.3775L4.46205 24.3494C4.00439 24.8071 4.00439 25.549 4.46205 26.0067C4.91962 26.4643 5.66173 26.4643 6.11931 26.0067L11.0912 21.0348C11.5488 20.5771 11.5488 19.8352 11.0912 19.3775C10.6335 18.9199 9.89149 18.9199 9.43392 19.3775Z" fill="#EE7E19"/>
<path d="M21.0349 11.0912L26.0068 6.1193C26.4644 5.66164 26.4644 4.91969 26.0068 4.46204C25.5492 4.00438 24.8072 4.00438 24.3495 4.46204L19.3776 9.4339C18.92 9.89156 18.92 10.6335 19.3776 11.0912C19.8352 11.5488 20.5773 11.5488 21.0349 11.0912Z" fill="#EE7E19"/>
<path d="M9.37499 15.2343C9.37499 14.5872 8.8503 14.0625 8.20311 14.0625H1.17187C0.524687 14.0625 0 14.5872 0 15.2343C0 15.8815 0.524687 16.4062 1.17187 16.4062H8.20311C8.8503 16.4062 9.37499 15.8815 9.37499 15.2343Z" fill="#EE7E19"/>
<path d="M39.6567 33.0276L32.8983 26.2692L36.2129 22.9546C36.5001 22.6675 36.6181 22.2521 36.5247 21.8568C36.4314 21.4614 36.1401 21.1427 35.7548 21.0143L15.8675 14.3851C15.4465 14.2447 14.9821 14.3543 14.6683 14.6682C14.3544 14.9822 14.2448 15.4464 14.3852 15.8675L21.0143 35.7549C21.1428 36.1402 21.4616 36.4315 21.8568 36.5248C22.252 36.6183 22.6675 36.5002 22.9547 36.2129L26.2693 32.8984L33.0277 39.6567C33.2565 39.8855 33.5565 40 33.8563 40C34.1562 40 34.4561 39.8856 34.6849 39.6567L39.6568 34.6849C40.1144 34.2272 40.1144 33.4852 39.6567 33.0276ZM33.8562 37.1708L27.0978 30.4124C26.6402 29.9548 25.8981 29.9548 25.4405 30.4124L22.6381 33.2149L17.3498 17.3498L33.2148 22.6382L30.4124 25.4406C29.9551 25.8978 29.9548 26.6403 30.4124 27.0978L37.1708 33.8563L33.8562 37.1708Z" fill="#EE7E19"/>
<path d="M15.2344 9.37498C15.8815 9.37498 16.4062 8.8503 16.4062 8.20311V1.17187C16.4062 0.524687 15.8815 0 15.2344 0C14.5872 0 14.0625 0.524687 14.0625 1.17187V8.20311C14.0625 8.8503 14.5872 9.37498 15.2344 9.37498Z" fill="#EE7E19"/>
<path d="M6.11931 4.46204C5.66173 4.00438 4.9197 4.00438 4.46205 4.46204C4.00439 4.91969 4.00439 5.66164 4.46205 6.1193L9.43392 11.0912C9.89149 11.5488 10.6336 11.5488 11.0912 11.0912C11.5488 10.6335 11.5488 9.89156 11.0912 9.4339L6.11931 4.46204Z" fill="#EE7E19"/>
<path d="M9.43392 19.3775L4.46205 24.3494C4.00439 24.8071 4.00439 25.549 4.46205 26.0067C4.91962 26.4643 5.66173 26.4643 6.11931 26.0067L11.0912 21.0348C11.5488 20.5771 11.5488 19.8352 11.0912 19.3775C10.6335 18.9199 9.89149 18.9199 9.43392 19.3775Z" fill="#EE7E19"/>
<path d="M21.0349 11.0912L26.0068 6.1193C26.4644 5.66164 26.4644 4.91969 26.0068 4.46204C25.5492 4.00438 24.8072 4.00438 24.3495 4.46204L19.3776 9.4339C18.92 9.89156 18.92 10.6335 19.3776 11.0912C19.8352 11.5488 20.5773 11.5488 21.0349 11.0912Z" fill="#EE7E19"/>
<path d="M9.37499 15.2343C9.37499 14.5872 8.8503 14.0625 8.20311 14.0625H1.17187C0.524687 14.0625 0 14.5872 0 15.2343C0 15.8815 0.524687 16.4062 1.17187 16.4062H8.20311C8.8503 16.4062 9.37499 15.8815 9.37499 15.2343Z" fill="#EE7E19"/>
</svg>
