<svg width="41" height="41" viewBox="0 0 41 41" fill="none" xmlns="http://www.w3.org/2000/svg">
<path d="M40.6482 33.8533L33.7208 26.9259L37.1182 23.5285C37.4126 23.2342 37.5336 22.8084 37.4379 22.4032C37.3422 21.998 37.0437 21.6713 36.6487 21.5396L16.2642 14.7448C15.8327 14.6009 15.3567 14.7132 15.035 15.035C14.7133 15.3567 14.6009 15.8326 14.7448 16.2642L21.5397 36.6488C21.6714 37.0437 21.9981 37.3423 22.4032 37.438C22.8084 37.5338 23.2342 37.4127 23.5286 37.1183L26.9261 33.7209L33.8535 40.6482C34.088 40.8828 34.3954 41.0001 34.7028 41.0001C35.0101 41.0001 35.3176 40.8828 35.5521 40.6482L40.6482 35.552C41.1173 35.0829 41.1173 34.3224 40.6482 33.8533ZM34.7027 38.1001L27.7753 31.1728C27.3063 30.7037 26.5456 30.7037 26.0766 31.1728L23.2041 34.0453L17.7835 17.7836L34.0452 23.2042L31.1728 26.0766C30.7041 26.5452 30.7037 27.3063 31.1728 27.7753L38.1002 34.7027L34.7027 38.1001Z" fill="white"/>
<path d="M15.6152 9.60938C16.2786 9.60938 16.8164 9.07157 16.8164 8.4082V1.20117C16.8164 0.537805 16.2786 0 15.6152 0C14.9519 0 14.4141 0.537805 14.4141 1.20117V8.4082C14.4141 9.07157 14.9519 9.60938 15.6152 9.60938Z" fill="white"/>
<path d="M6.2723 4.5736C5.80328 4.1045 5.0427 4.1045 4.5736 4.5736C4.10451 5.04269 4.10451 5.8032 4.5736 6.27229L9.66978 11.3685C10.1388 11.8376 10.8995 11.8376 11.3685 11.3685C11.8376 10.8994 11.8376 10.1389 11.3685 9.66977L6.2723 4.5736Z" fill="white"/>
<path d="M9.66978 19.862L4.5736 24.9582C4.10451 25.4273 4.10451 26.1878 4.5736 26.6569C5.04262 27.126 5.80328 27.126 6.2723 26.6569L11.3685 21.5607C11.8376 21.0916 11.8376 20.3311 11.3685 19.862C10.8994 19.3929 10.1388 19.3929 9.66978 19.862Z" fill="white"/>
<path d="M21.5608 11.3685L26.657 6.27229C27.1261 5.8032 27.1261 5.04269 26.657 4.5736C26.188 4.1045 25.4274 4.1045 24.9583 4.5736L19.8621 9.66977C19.393 10.1389 19.393 10.8994 19.8621 11.3685C20.3311 11.8376 21.0918 11.8376 21.5608 11.3685Z" fill="white"/>
<path d="M9.60938 15.6152C9.60938 14.9519 9.07157 14.4141 8.4082 14.4141H1.20117C0.537805 14.4141 0 14.9519 0 15.6152C0 16.2786 0.537805 16.8164 1.20117 16.8164H8.4082C9.07157 16.8164 9.60938 16.2786 9.60938 15.6152Z" fill="white"/>
</svg>
