<svg width="32" height="32" viewBox="0 0 32 32" fill="none" xmlns="http://www.w3.org/2000/svg">
<path d="M14.5171 13.0589H17.5102V10.0242C17.5102 9.63055 17.8324 9.30847 18.2262 9.30847C18.6201 9.30847 18.9423 9.63055 18.9423 10.0242V13.0589H21.9784C22.3722 13.0589 22.6944 13.381 22.6944 13.7746C22.6944 14.1683 22.3722 14.4903 21.9784 14.4903H18.9423V17.4892C18.9423 17.8829 18.6201 18.205 18.2262 18.205C17.8324 18.205 17.5102 17.8829 17.5102 17.4892V14.4903H14.5171C14.1233 14.4903 13.801 14.1683 13.801 13.7746C13.801 13.381 14.1161 13.0589 14.5171 13.0589Z" fill="white"/>
<path d="M10.586 6.04478C14.825 1.81482 21.7206 1.81482 25.9524 6.04478C30.1843 10.2747 30.1843 17.1672 25.9524 21.4043C21.7062 25.6343 14.8322 25.6343 10.586 21.4043C6.35411 17.1744 6.35411 10.2819 10.586 6.04478ZM11.6028 20.3952C15.2833 24.0669 21.2695 24.074 24.9428 20.3952C28.6233 16.7163 28.6233 10.7328 24.9428 7.06112C21.2551 3.38942 15.2904 3.38942 11.6028 7.06112C7.92226 10.7328 7.92226 16.7163 11.6028 20.3952Z" fill="white"/>
<path d="M0.761758 27.4953C0.768918 27.4881 0.776078 27.481 0.783238 27.4738L6.86967 21.3758C2.64497 15.0845 4.32053 6.55303 10.6146 2.33022C16.9087 -1.89259 25.444 -0.21778 29.6687 6.07349C33.8934 12.3648 32.2179 20.8963 25.9238 25.1191C23.9332 26.4575 21.6275 27.2448 19.2359 27.4166C18.9137 27.438 18.5914 27.4523 18.2764 27.4523C15.5482 27.4523 12.8845 26.6436 10.6218 25.1262L4.53535 31.2099C3.50423 32.2549 1.82867 32.262 0.790399 31.2386C-0.255035 30.2079 -0.262195 28.5331 0.761758 27.4953ZM10.9655 23.616C16.4361 27.6599 24.1408 26.5004 28.1793 21.0394C32.2179 15.5784 31.065 7.86997 25.5944 3.83325C20.1238 -0.203465 12.4191 0.94886 8.38054 6.41704C5.16547 10.7687 5.16547 16.7092 8.39486 21.0609C9.11807 22.0271 9.9845 22.8931 10.9655 23.616ZM1.79287 30.2007C2.02201 30.4298 2.32991 30.5586 2.65929 30.5586C2.98152 30.5586 3.28942 30.4298 3.51855 30.2007L9.46178 24.2602C9.15388 24.0025 8.85313 23.7305 8.55955 23.4371C8.26597 23.1436 7.99387 22.843 7.73609 22.5353L1.79287 28.4758C1.32028 28.9482 1.32028 29.7212 1.79287 30.2007Z" fill="white"/>
</svg>
